<svg style="display:none">
 <defs>
    <symbol id="icon-new-moon" viewBox="0 0 50 50">
        <circle cx="25" cy="25" r="16" stroke-width="2"/>
    </symbol>
    <symbol id="icon-waxing-crescent" viewBox="0 0 50 50">
        <circle stroke-width="2" fill="none" r="16" cy="25" cx="25"/>
        <path stroke-width="0" d="m25,9a16,16 0 0 0 0,32l0,-1.5a18,18 0 0 0 0,-29l0,-1.5z"/>
    </symbol>
    <symbol id="icon-first-quarter" viewBox="0 0 50 50">
        <circle stroke-width="2" fill="none" r="16" cy="25" cx="25"/>
        <path stroke-width="0" d="m25,9a16,16 0 0 0 0,32l0,-32z"/>
    </symbol>
    <symbol id="icon-waxing-gibbous" viewBox="0 0 50 50">
        <circle cx="25" cy="25" r="16" fill="none" stroke-width="2"/>
        <path d="m25,9a16,16 0 0 0 0,32l0,-1.5a18,18 0 0 1 0,-29l0,-1.5z" stroke-width="0"/>
    </symbol>
    <symbol id="icon-full-moon" viewBox="0 0 50 50">
        <circle cx="25" cy="25" r="16" fill="none" stroke-width="2"/>
    </symbol>
    <symbol id="icon-waning-gibbous" viewBox="0 0 50 50">
        <circle cx="25" cy="25" r="16" fill="none" stroke-width="2"/>
        <path d="m25,9a16,16 0 0 1 0,32l0,-1.5a18,18 0 0 0 0,-29l0,-1.5z" stroke-width="0"/>
    </symbol>
    <symbol id="icon-last-quarter" viewBox="0 0 50 50">
        <circle cx="25" cy="25" r="16" fill="none" stroke-width="2"/>
        <path d="m25,9a16,16 0 0 1 0,32l0,-32z" stroke-width="0"/>
    </symbol>
    <symbol id="icon-waning-crescent" viewBox="0 0 50 50">
        <circle stroke-width="2" fill="none" r="16" cy="25" cx="25"/>
        <path stroke-width="0" d="m25,9a16,16 0 0 1 0,32l0,-1.5a18,18 0 0 1 0,-29l0,-1.5z"/>
    </symbol>
 </defs>
</svg>

